# xmcd
#
# Track frame offsets:
#	150
#	10197
#	20190
#	29365
#	40565
#	51435
#	61235
#	72290
#	84215
#	93735
#	106877
#	118902
#	131625
#	145927
#	158312
#	168990
#	182365
#	195695
#	206272
#	218377
#	228522
#	239775
#	251575
#	264742
#
# Disc length: 3737 seconds
#
# Revision: 1
# Processed by: cddbd v1.5.1PL0 Copyright (c) Steve Scherf et al.
# Submitted via: audiograbber 1.83.01
#
DISCID=4a0e9718
DTITLE=Lynn Anderson - Greatest Hits
DYEAR=1900
DGENRE=Country
TTITLE0=If I Kiss You
TTITLE1=Promises, Promises
TTITLE2=No Another Time
TTITLE3=Big Girls Don't Cry
TTITLE4=Flattery Will Get You Everywhere
TTITLE5=That's a No No
TTITLE6=I've Been Everywhere
TTITLE7=Rocky Top
TTITLE8=Stay There 'Till I Get There
TTITLE9=Rose Garden
TTITLE10=You're My Man
TTITLE11=How Can I Unlove You
TTITLE12=Cry
TTITLE13=Listen to a Country Song
TTITLE14=Fool Me
TTITLE15=Keep Me in Mind
TTITLE16=Top of the World
TTITLE17=Sing About Love
TTITLE18=Talkin' to the Wall
TTITLE19=What a Man, My Man Is
TTITLE20=He Turns It Into Love Again
TTITLE21=Wrap Your Love All Around Your Man
TTITLE22=Isn't It Alway Love
TTITLE23=Sea of Heartbreak
EXTD=
EXTT0=
EXTT1=
EXTT2=
EXTT3=
EXTT4=
EXTT5=
EXTT6=
EXTT7=
EXTT8=
EXTT9=
EXTT10=
EXTT11=
EXTT12=
EXTT13=
EXTT14=
EXTT15=
EXTT16=
EXTT17=
EXTT18=
EXTT19=
EXTT20=
EXTT21=
EXTT22=
EXTT23=
PLAYORDER=
